# xmcd
#
# Track frame offsets: 
#        150
#        10627
#        19481
#        30024
#        43373
#        54437
#        65791
#        77695
#        88457
#        100181
#        110333
#        118722
#        128744
#        140544
#        152098
#        163623
#        175906
#        184931
#        195774
#        206790
#
# Disc length: 2912 seconds
#
# Revision: 3
# Processed by: cddbd v1.5.2PL0 Copyright (c) Steve Scherf et al.
# Submitted via: ExactAudioCopy v1.3
#
DISCID=0f0b5e14
DTITLE=Buck Owens and his Buckaroos - Tall Dark Stranger_CD7
DYEAR=2012
DGENRE=Country
TTITLE0=Love Makes the World Go Around
TTITLE1=Loving You
TTITLE2=I Won't Be Needing You
TTITLE3=Songwriter's Lament
TTITLE4=That Loving Feeling
TTITLE5=Someday I'm Gonna Go to Mexico
TTITLE6=Colors I'm Gonna Paint the Town
TTITLE7=It Never Will Be Over for Me
TTITLE8=Happy Hour
TTITLE9=Your Daddy Was a Preacher (And Your Mama Was a Dancing Girl)
TTITLE10=Hello Trouble
TTITLE11=Big Game Hunter
TTITLE12=(It's A) Monsters' Holiday
TTITLE13=I Wish I Was a Butterfly
TTITLE14=John Law
TTITLE15=Stony Mountain West Virginia
TTITLE16=Let the Fun Begin
TTITLE17=Holdin' On
TTITLE18=Great Expectations
TTITLE19=All Around Cowboy of 1964
EXTD=
EXTT0=
EXTT1=
EXTT2=
EXTT3=
EXTT4=
EXTT5=
EXTT6=
EXTT7=
EXTT8=
EXTT9=
EXTT10=
EXTT11=
EXTT12=
EXTT13=
EXTT14=
EXTT15=
EXTT16=
EXTT17=
EXTT18=
EXTT19=
PLAYORDER=
